<mxfile host="app.diagrams.net" modified="2024-07-03T16:50:08.067Z" agent="Mozilla/5.0 (Windows NT 10.0; Win64; x64) AppleWebKit/537.36 (KHTML, like Gecko) Chrome/126.0.0.0 Safari/537.36" etag="BaMLdAQPCyFWLdZwACvm" version="24.6.2" type="device">
  <diagram id="LmHbcjnlxek3c9rHapPQ" name="base">
    <mxGraphModel dx="2049" dy="1114" grid="1" gridSize="10" guides="1" tooltips="1" connect="1" arrows="1" fold="1" page="1" pageScale="1" pageWidth="1600" pageHeight="900" math="0" shadow="0">
      <root>
        <mxCell id="0" />
        <mxCell id="1" parent="0" />
        <mxCell id="3HzGkQfU9xg5AhfW2AGq-1" value="" style="verticalLabelPosition=bottom;html=1;verticalAlign=top;align=center;shape=mxgraph.floorplan.wall;fillColor=strokeColor;strokeColor=#999999;" parent="1" vertex="1">
          <mxGeometry x="1260" y="1242" width="420" height="10" as="geometry" />
        </mxCell>
        <mxCell id="3HzGkQfU9xg5AhfW2AGq-2" value="" style="verticalLabelPosition=bottom;html=1;verticalAlign=top;align=center;shape=mxgraph.floorplan.wall;fillColor=#000000;" parent="1" vertex="1">
          <mxGeometry x="140" y="910" width="380" height="10" as="geometry" />
        </mxCell>
        <mxCell id="3HzGkQfU9xg5AhfW2AGq-3" value="" style="verticalLabelPosition=bottom;html=1;verticalAlign=top;align=center;shape=mxgraph.floorplan.wall;fillColor=#000000;direction=south;" parent="1" vertex="1">
          <mxGeometry x="129" y="911.82" width="10" height="700" as="geometry" />
        </mxCell>
        <mxCell id="3HzGkQfU9xg5AhfW2AGq-4" value="" style="verticalLabelPosition=bottom;html=1;verticalAlign=top;align=center;shape=mxgraph.floorplan.wall;fillColor=#000000;" parent="1" vertex="1">
          <mxGeometry x="520" y="910" width="310" height="10" as="geometry" />
        </mxCell>
        <mxCell id="3HzGkQfU9xg5AhfW2AGq-5" value="" style="verticalLabelPosition=bottom;html=1;verticalAlign=top;align=center;shape=mxgraph.floorplan.wall;fillColor=#000000;strokeColor=none;" parent="1" vertex="1">
          <mxGeometry x="820" y="743" width="870" height="10" as="geometry" />
        </mxCell>
        <mxCell id="3HzGkQfU9xg5AhfW2AGq-6" value="" style="verticalLabelPosition=bottom;html=1;verticalAlign=top;align=center;shape=mxgraph.floorplan.wall;fillColor=#000000;direction=south;" parent="1" vertex="1">
          <mxGeometry x="1677" y="750" width="10" height="850" as="geometry" />
        </mxCell>
        <mxCell id="3HzGkQfU9xg5AhfW2AGq-7" value="" style="verticalLabelPosition=bottom;html=1;verticalAlign=top;align=center;shape=mxgraph.floorplan.wall;fillColor=#000000;" parent="1" vertex="1">
          <mxGeometry x="140" y="1600" width="460" height="10" as="geometry" />
        </mxCell>
        <mxCell id="3HzGkQfU9xg5AhfW2AGq-8" value="" style="verticalLabelPosition=bottom;html=1;verticalAlign=top;align=center;shape=mxgraph.floorplan.wall;fillColor=#000000;" parent="1" vertex="1">
          <mxGeometry x="710" y="1601.82" width="980" height="10" as="geometry" />
        </mxCell>
        <mxCell id="3HzGkQfU9xg5AhfW2AGq-9" value="" style="rounded=0;whiteSpace=wrap;html=1;strokeColor=none;fillColor=#000000;" parent="1" vertex="1">
          <mxGeometry x="820" y="750" width="22" height="580" as="geometry" />
        </mxCell>
        <mxCell id="3HzGkQfU9xg5AhfW2AGq-10" value="" style="rounded=0;whiteSpace=wrap;html=1;strokeColor=none;fillColor=#000000;" parent="1" vertex="1">
          <mxGeometry x="821" y="1540" width="22.5" height="60" as="geometry" />
        </mxCell>
        <mxCell id="3HzGkQfU9xg5AhfW2AGq-11" value="" style="rounded=0;whiteSpace=wrap;html=1;strokeColor=none;fillColor=#000000;" parent="1" vertex="1">
          <mxGeometry x="820" y="1319" width="22" height="61" as="geometry" />
        </mxCell>
        <mxCell id="3HzGkQfU9xg5AhfW2AGq-12" value="" style="verticalLabelPosition=bottom;html=1;verticalAlign=top;align=center;shape=mxgraph.floorplan.window;strokeColor=#999999;fillColor=#FFFFFF;" parent="1" vertex="1">
          <mxGeometry x="280" y="910" width="145.9" height="10" as="geometry" />
        </mxCell>
        <mxCell id="3HzGkQfU9xg5AhfW2AGq-13" value="" style="verticalLabelPosition=bottom;html=1;verticalAlign=top;align=center;shape=mxgraph.floorplan.window;strokeColor=#999999;fillColor=#FFFFFF;" parent="1" vertex="1">
          <mxGeometry x="614" y="909.5300000000001" width="175.6" height="10" as="geometry" />
        </mxCell>
        <mxCell id="3HzGkQfU9xg5AhfW2AGq-14" value="" style="verticalLabelPosition=bottom;html=1;verticalAlign=top;align=center;shape=mxgraph.floorplan.window;strokeColor=#999999;fillColor=#FFFFFF;flipV=1;" parent="1" vertex="1">
          <mxGeometry x="908" y="743" width="145.7" height="10" as="geometry" />
        </mxCell>
        <mxCell id="3HzGkQfU9xg5AhfW2AGq-15" value="" style="verticalLabelPosition=bottom;html=1;verticalAlign=top;align=center;shape=mxgraph.floorplan.window;strokeColor=#999999;fillColor=#FFFFFF;" parent="1" vertex="1">
          <mxGeometry x="1376" y="743.5" width="294" height="10" as="geometry" />
        </mxCell>
        <mxCell id="3HzGkQfU9xg5AhfW2AGq-16" value="" style="verticalLabelPosition=bottom;html=1;verticalAlign=top;align=center;shape=mxgraph.floorplan.window;strokeColor=#999999;fillColor=#FFFFFF;direction=south;" parent="1" vertex="1">
          <mxGeometry x="1695" y="1402.64" width="10" height="120" as="geometry" />
        </mxCell>
        <mxCell id="3HzGkQfU9xg5AhfW2AGq-17" value="" style="verticalLabelPosition=bottom;html=1;verticalAlign=top;align=center;shape=mxgraph.floorplan.window;strokeColor=#999999;fillColor=#FFFFFF;direction=south;" parent="1" vertex="1">
          <mxGeometry x="820" y="752" width="20" height="110" as="geometry" />
        </mxCell>
        <mxCell id="3HzGkQfU9xg5AhfW2AGq-18" value="" style="verticalLabelPosition=bottom;html=1;verticalAlign=top;align=center;shape=mxgraph.floorplan.doorRight;aspect=fixed;strokeColor=#999999;fillColor=#FFFFFF;direction=north;" parent="1" vertex="1">
          <mxGeometry x="835" y="777.6400000000003" width="90" height="84.71" as="geometry" />
        </mxCell>
        <mxCell id="3HzGkQfU9xg5AhfW2AGq-19" value="588" style="shape=dimension;direction=south;whiteSpace=wrap;html=1;align=left;points=[];verticalAlign=middle;labelBackgroundColor=#ffffff;strokeColor=#4D4D4D;" parent="1" vertex="1">
          <mxGeometry x="782" y="1541" width="40" height="59" as="geometry" />
        </mxCell>
        <mxCell id="3HzGkQfU9xg5AhfW2AGq-20" value="1575" style="shape=dimension;direction=south;whiteSpace=wrap;html=1;align=left;points=[];verticalAlign=middle;labelBackgroundColor=#ffffff;strokeColor=#4D4D4D;" parent="1" vertex="1">
          <mxGeometry x="782" y="1382.5" width="40" height="158.5" as="geometry" />
        </mxCell>
        <mxCell id="3HzGkQfU9xg5AhfW2AGq-21" value="" style="verticalLabelPosition=bottom;html=1;verticalAlign=top;align=center;shape=mxgraph.floorplan.wall;fillColor=strokeColor;strokeColor=#999999;" parent="1" vertex="1">
          <mxGeometry x="140" y="1362.13" width="173" height="10" as="geometry" />
        </mxCell>
        <mxCell id="3HzGkQfU9xg5AhfW2AGq-22" value="" style="verticalLabelPosition=bottom;html=1;verticalAlign=top;align=center;shape=mxgraph.floorplan.wall;fillColor=strokeColor;direction=south;strokeColor=#EA6B66;" parent="1" vertex="1">
          <mxGeometry x="539.6" y="1425.01" width="10" height="174.99" as="geometry" />
        </mxCell>
        <mxCell id="3HzGkQfU9xg5AhfW2AGq-23" value="2714" style="shape=dimension;whiteSpace=wrap;html=1;align=center;points=[];verticalAlign=bottom;spacingBottom=-5;labelBackgroundColor=#ffffff;strokeColor=#999999;" parent="1" vertex="1">
          <mxGeometry x="549.6" y="1582.51" width="271.4" height="97.49" as="geometry" />
        </mxCell>
        <mxCell id="3HzGkQfU9xg5AhfW2AGq-24" value="454" style="shape=dimension;direction=west;whiteSpace=wrap;html=1;align=center;points=[];verticalAlign=bottom;spacingTop=-8;labelBackgroundColor=#ffffff;strokeColor=#999999;flipH=1;flipV=1;" parent="1" vertex="1">
          <mxGeometry x="550.6" y="1599.01" width="45.4" height="60.99" as="geometry" />
        </mxCell>
        <mxCell id="3HzGkQfU9xg5AhfW2AGq-27" value="" style="rounded=0;whiteSpace=wrap;html=1;strokeColor=#000000;fillColor=#000000;" parent="1" vertex="1">
          <mxGeometry x="363.7" y="1568.43" width="175.9" height="25.7" as="geometry" />
        </mxCell>
        <mxCell id="3HzGkQfU9xg5AhfW2AGq-28" value="" style="rounded=0;whiteSpace=wrap;html=1;strokeColor=#000000;fillColor=#000000;" parent="1" vertex="1">
          <mxGeometry x="150" y="1594.13" width="389.6" height="5.87" as="geometry" />
        </mxCell>
        <mxCell id="3HzGkQfU9xg5AhfW2AGq-35" value="" style="verticalLabelPosition=bottom;html=1;verticalAlign=top;align=center;shape=mxgraph.floorplan.wall;fillColor=strokeColor;strokeColor=#999999;" parent="1" vertex="1">
          <mxGeometry x="317" y="1425.02" width="23" height="10" as="geometry" />
        </mxCell>
        <mxCell id="3HzGkQfU9xg5AhfW2AGq-36" value="545" style="shape=dimension;direction=south;whiteSpace=wrap;html=1;align=left;points=[];verticalAlign=middle;labelBackgroundColor=#ffffff;strokeColor=#999999;" parent="1" vertex="1">
          <mxGeometry x="781" y="1325.5" width="40" height="54.5" as="geometry" />
        </mxCell>
        <mxCell id="3HzGkQfU9xg5AhfW2AGq-37" value="" style="verticalLabelPosition=bottom;html=1;verticalAlign=top;align=center;shape=mxgraph.floorplan.wall;fillColor=strokeColor;strokeColor=#EA6B66;" parent="1" vertex="1">
          <mxGeometry x="310" y="1313.88" width="50" height="10" as="geometry" />
        </mxCell>
        <mxCell id="3HzGkQfU9xg5AhfW2AGq-39" value="3795" style="shape=dimension;direction=west;whiteSpace=wrap;html=1;align=center;points=[];verticalAlign=top;spacingTop=-8;labelBackgroundColor=#ffffff;strokeColor=#999999;fillColor=#999999;" parent="1" vertex="1">
          <mxGeometry x="140" y="1260" width="379" height="40" as="geometry" />
        </mxCell>
        <mxCell id="3HzGkQfU9xg5AhfW2AGq-40" value="" style="verticalLabelPosition=bottom;html=1;verticalAlign=top;align=center;shape=mxgraph.floorplan.wall;fillColor=strokeColor;direction=south;strokeColor=#999999;" parent="1" vertex="1">
          <mxGeometry x="519.7" y="920" width="10" height="393.88" as="geometry" />
        </mxCell>
        <mxCell id="3HzGkQfU9xg5AhfW2AGq-41" value="3964" style="shape=dimension;direction=south;whiteSpace=wrap;html=1;align=left;points=[];verticalAlign=middle;labelBackgroundColor=#ffffff;strokeColor=#999999;fillColor=#999999;" parent="1" vertex="1">
          <mxGeometry x="480" y="920" width="40" height="396.4" as="geometry" />
        </mxCell>
        <mxCell id="3HzGkQfU9xg5AhfW2AGq-42" value="2894" style="shape=dimension;direction=west;whiteSpace=wrap;html=1;align=center;points=[];verticalAlign=top;spacingTop=-8;labelBackgroundColor=#ffffff;strokeColor=#999999;fillColor=#999999;" parent="1" vertex="1">
          <mxGeometry x="530.5" y="1140" width="289" height="173.88" as="geometry" />
        </mxCell>
        <mxCell id="3HzGkQfU9xg5AhfW2AGq-43" value="4888" style="shape=dimension;whiteSpace=wrap;html=1;align=center;points=[];verticalAlign=bottom;spacingBottom=-5;labelBackgroundColor=#ffffff;strokeColor=#999999;fillColor=#999999;" parent="1" vertex="1">
          <mxGeometry x="328.9" y="1323.88" width="488.8" height="40" as="geometry" />
        </mxCell>
        <mxCell id="3HzGkQfU9xg5AhfW2AGq-44" value="" style="rounded=0;whiteSpace=wrap;html=1;strokeColor=#EA6B66;fillColor=#EA6B66;" parent="1" vertex="1">
          <mxGeometry x="233.1" y="1372.5" width="12" height="63.9" as="geometry" />
        </mxCell>
        <mxCell id="3HzGkQfU9xg5AhfW2AGq-45" value="" style="rounded=0;whiteSpace=wrap;html=1;strokeColor=#999999;fillColor=#999999;" parent="1" vertex="1">
          <mxGeometry x="308" y="1314" width="22" height="121" as="geometry" />
        </mxCell>
        <mxCell id="3HzGkQfU9xg5AhfW2AGq-47" value="1409" style="shape=dimension;direction=west;whiteSpace=wrap;html=1;align=center;points=[];verticalAlign=top;spacingTop=-8;labelBackgroundColor=#ffffff;strokeColor=#999999;fillColor=#999999;" parent="1" vertex="1">
          <mxGeometry x="139" y="869.53" width="140.9" height="40" as="geometry" />
        </mxCell>
        <mxCell id="3HzGkQfU9xg5AhfW2AGq-48" value="1459" style="shape=dimension;direction=west;whiteSpace=wrap;html=1;align=center;points=[];verticalAlign=top;spacingTop=-8;labelBackgroundColor=#ffffff;strokeColor=#999999;fillColor=#999999;" parent="1" vertex="1">
          <mxGeometry x="279.9" y="870" width="145.9" height="40" as="geometry" />
        </mxCell>
        <mxCell id="3HzGkQfU9xg5AhfW2AGq-49" value="909" style="shape=dimension;direction=west;whiteSpace=wrap;html=1;align=center;points=[];verticalAlign=top;spacingTop=-8;labelBackgroundColor=#ffffff;strokeColor=#999999;fillColor=#999999;" parent="1" vertex="1">
          <mxGeometry x="426.04999999999995" y="870.82" width="90.9" height="40" as="geometry" />
        </mxCell>
        <mxCell id="3HzGkQfU9xg5AhfW2AGq-50" value="1160" style="shape=dimension;whiteSpace=wrap;html=1;align=center;points=[];verticalAlign=bottom;spacingBottom=-5;labelBackgroundColor=#ffffff;strokeColor=#999999;fillColor=#999999;" parent="1" vertex="1">
          <mxGeometry x="705" y="1609.51" width="116" height="40" as="geometry" />
        </mxCell>
        <mxCell id="3HzGkQfU9xg5AhfW2AGq-51" value="" style="verticalLabelPosition=bottom;html=1;verticalAlign=top;align=center;shape=mxgraph.floorplan.doorRight;aspect=fixed;direction=west;strokeColor=#b85450;fillColor=#f8cecc;" parent="1" vertex="1">
          <mxGeometry x="597" y="1493.37" width="108" height="114.76" as="geometry" />
        </mxCell>
        <mxCell id="3HzGkQfU9xg5AhfW2AGq-52" value="" style="verticalLabelPosition=bottom;html=1;verticalAlign=top;align=center;shape=mxgraph.floorplan.wall;fillColor=#000000;" parent="1" vertex="1">
          <mxGeometry x="705" y="1601.82" width="115" height="10" as="geometry" />
        </mxCell>
        <mxCell id="3HzGkQfU9xg5AhfW2AGq-53" value="834" style="shape=dimension;direction=west;whiteSpace=wrap;html=1;align=center;points=[];verticalAlign=top;spacingTop=-8;labelBackgroundColor=#ffffff;strokeColor=#999999;fillColor=#999999;" parent="1" vertex="1">
          <mxGeometry x="529.7" y="871.82" width="83.4" height="40" as="geometry" />
        </mxCell>
        <mxCell id="3HzGkQfU9xg5AhfW2AGq-54" value="834" style="shape=dimension;direction=west;whiteSpace=wrap;html=1;align=center;points=[];verticalAlign=top;spacingTop=-8;labelBackgroundColor=#ffffff;strokeColor=#999999;fillColor=#999999;" parent="1" vertex="1">
          <mxGeometry x="613" y="872.35" width="175.5" height="40" as="geometry" />
        </mxCell>
        <mxCell id="3HzGkQfU9xg5AhfW2AGq-55" value="30" style="shape=dimension;direction=west;whiteSpace=wrap;html=1;align=center;points=[];verticalAlign=top;spacingTop=-8;labelBackgroundColor=#ffffff;strokeColor=#999999;fillColor=#999999;" parent="1" vertex="1">
          <mxGeometry x="788.6" y="872.35" width="31.4" height="40" as="geometry" />
        </mxCell>
        <mxCell id="3HzGkQfU9xg5AhfW2AGq-56" value="1485" style="shape=dimension;whiteSpace=wrap;html=1;align=center;points=[];verticalAlign=bottom;spacingBottom=-5;labelBackgroundColor=#ffffff;strokeColor=#999999;" parent="1" vertex="1">
          <mxGeometry x="844" y="1562.51" width="148.5" height="97.49" as="geometry" />
        </mxCell>
        <mxCell id="3HzGkQfU9xg5AhfW2AGq-61" value="" style="verticalLabelPosition=bottom;html=1;verticalAlign=top;align=center;shape=mxgraph.floorplan.doorLeft;strokeColor=#b85450;fillColor=#f8cecc;flipH=0;flipV=1;" parent="1" vertex="1">
          <mxGeometry x="1166" y="1167" width="89" height="85" as="geometry" />
        </mxCell>
        <mxCell id="3HzGkQfU9xg5AhfW2AGq-63" value="4241" style="shape=dimension;direction=west;whiteSpace=wrap;html=1;align=center;points=[];verticalAlign=top;spacingTop=-8;labelBackgroundColor=#ffffff;strokeColor=#999999;fillColor=#999999;" parent="1" vertex="1">
          <mxGeometry x="1248.2" y="1210" width="425.3" height="33" as="geometry" />
        </mxCell>
        <mxCell id="3HzGkQfU9xg5AhfW2AGq-64" value="4080" style="shape=dimension;whiteSpace=wrap;html=1;align=center;points=[];verticalAlign=bottom;spacingBottom=-5;labelBackgroundColor=#ffffff;strokeColor=#999999;fillColor=#999999;" parent="1" vertex="1">
          <mxGeometry x="1269" y="1249" width="407" height="36" as="geometry" />
        </mxCell>
        <mxCell id="3HzGkQfU9xg5AhfW2AGq-65" value="" style="rounded=0;whiteSpace=wrap;html=1;strokeColor=#999999;fillColor=#999999;" parent="1" vertex="1">
          <mxGeometry x="1260" y="1243" width="10" height="88" as="geometry" />
        </mxCell>
        <mxCell id="3HzGkQfU9xg5AhfW2AGq-66" value="" style="rounded=0;whiteSpace=wrap;html=1;strokeColor=#999999;fillColor=#999999;" parent="1" vertex="1">
          <mxGeometry x="1268" y="1431.82" width="12" height="170" as="geometry" />
        </mxCell>
        <mxCell id="3HzGkQfU9xg5AhfW2AGq-67" value="800" style="shape=dimension;direction=north;whiteSpace=wrap;html=1;align=right;points=[];verticalAlign=middle;labelBackgroundColor=#ffffff;strokeColor=#999999;fillColor=#999999;" parent="1" vertex="1">
          <mxGeometry x="1288" y="1252" width="40" height="83.8" as="geometry" />
        </mxCell>
        <mxCell id="3HzGkQfU9xg5AhfW2AGq-68" value="1704" style="shape=dimension;direction=north;whiteSpace=wrap;html=1;align=right;points=[];verticalAlign=middle;labelBackgroundColor=#ffffff;strokeColor=#999999;fillColor=#999999;" parent="1" vertex="1">
          <mxGeometry x="1288" y="1431" width="40" height="170.4" as="geometry" />
        </mxCell>
        <mxCell id="3HzGkQfU9xg5AhfW2AGq-69" value="950" style="shape=dimension;direction=north;whiteSpace=wrap;html=1;align=right;points=[];verticalAlign=middle;labelBackgroundColor=#ffffff;strokeColor=#999999;fillColor=#999999;" parent="1" vertex="1">
          <mxGeometry x="1288" y="1335.8" width="40" height="95" as="geometry" />
        </mxCell>
        <mxCell id="3HzGkQfU9xg5AhfW2AGq-70" value="" style="rounded=0;whiteSpace=wrap;html=1;strokeColor=none;fillColor=#000000;" parent="1" vertex="1">
          <mxGeometry x="1007.5" y="1567.8100000000002" width="90" height="34" as="geometry" />
        </mxCell>
        <mxCell id="3HzGkQfU9xg5AhfW2AGq-71" value="900" style="shape=dimension;whiteSpace=wrap;html=1;align=center;points=[];verticalAlign=bottom;spacingBottom=-5;labelBackgroundColor=#ffffff;strokeColor=#999999;" parent="1" vertex="1">
          <mxGeometry x="1007.5" y="1562.51" width="90" height="97.49" as="geometry" />
        </mxCell>
        <mxCell id="3HzGkQfU9xg5AhfW2AGq-72" value="1700" style="shape=dimension;whiteSpace=wrap;html=1;align=center;points=[];verticalAlign=bottom;spacingBottom=-5;labelBackgroundColor=#ffffff;strokeColor=#999999;" parent="1" vertex="1">
          <mxGeometry x="1097.5" y="1562.51" width="170" height="97.49" as="geometry" />
        </mxCell>
        <mxCell id="3HzGkQfU9xg5AhfW2AGq-73" value="" style="rounded=0;whiteSpace=wrap;html=1;strokeColor=#999999;fillColor=#999999;" parent="1" vertex="1">
          <mxGeometry x="992.5" y="1431.82" width="15" height="170" as="geometry" />
        </mxCell>
        <mxCell id="3HzGkQfU9xg5AhfW2AGq-74" value="1526" style="shape=dimension;direction=south;whiteSpace=wrap;html=1;align=left;points=[];verticalAlign=middle;labelBackgroundColor=#ffffff;strokeColor=#999999;fillColor=#999999;" parent="1" vertex="1">
          <mxGeometry x="1228.35" y="1448.8" width="40" height="152.6" as="geometry" />
        </mxCell>
        <mxCell id="3HzGkQfU9xg5AhfW2AGq-75" value="" style="rounded=0;whiteSpace=wrap;html=1;strokeColor=#999999;fillColor=#999999;direction=south;" parent="1" vertex="1">
          <mxGeometry x="1000" y="1431.82" width="170" height="15" as="geometry" />
        </mxCell>
        <mxCell id="3HzGkQfU9xg5AhfW2AGq-76" value="" style="rounded=0;whiteSpace=wrap;html=1;strokeColor=#999999;fillColor=#999999;direction=south;" parent="1" vertex="1">
          <mxGeometry x="840" y="1311.5" width="320" height="15" as="geometry" />
        </mxCell>
        <mxCell id="3HzGkQfU9xg5AhfW2AGq-77" value="" style="rounded=0;whiteSpace=wrap;html=1;strokeColor=#999999;fillColor=#999999;direction=west;" parent="1" vertex="1">
          <mxGeometry x="1150" y="1250" width="10" height="77" as="geometry" />
        </mxCell>
        <mxCell id="3HzGkQfU9xg5AhfW2AGq-78" value="" style="rounded=0;whiteSpace=wrap;html=1;strokeColor=none;fillColor=#000000;" parent="1" vertex="1">
          <mxGeometry x="840" y="1253" width="58" height="58" as="geometry" />
        </mxCell>
        <mxCell id="3HzGkQfU9xg5AhfW2AGq-79" value="" style="verticalLabelPosition=bottom;html=1;verticalAlign=top;align=center;shape=mxgraph.floorplan.wall;fillColor=strokeColor;direction=south;strokeColor=#999999;" parent="1" vertex="1">
          <mxGeometry x="840" y="953" width="10" height="300" as="geometry" />
        </mxCell>
        <mxCell id="3HzGkQfU9xg5AhfW2AGq-81" value="2000" style="shape=dimension;direction=north;whiteSpace=wrap;html=1;align=right;points=[];verticalAlign=middle;labelBackgroundColor=#ffffff;strokeColor=#999999;fillColor=#999999;" parent="1" vertex="1">
          <mxGeometry x="845" y="753.5" width="115" height="200" as="geometry" />
        </mxCell>
        <mxCell id="3HzGkQfU9xg5AhfW2AGq-82" value="900" style="shape=dimension;direction=north;whiteSpace=wrap;html=1;align=right;points=[];verticalAlign=middle;labelBackgroundColor=#ffffff;strokeColor=#999999;fillColor=#999999;" parent="1" vertex="1">
          <mxGeometry x="840" y="863.5" width="25" height="90" as="geometry" />
        </mxCell>
        <mxCell id="3HzGkQfU9xg5AhfW2AGq-84" value="5137" style="shape=dimension;direction=west;whiteSpace=wrap;html=1;align=center;points=[];verticalAlign=top;spacingTop=-8;labelBackgroundColor=#ffffff;strokeColor=#999999;fillColor=#999999;" parent="1" vertex="1">
          <mxGeometry x="1159.8" y="1189" width="513.7" height="53" as="geometry" />
        </mxCell>
        <mxCell id="3HzGkQfU9xg5AhfW2AGq-89" value="2954" style="shape=dimension;direction=south;whiteSpace=wrap;html=1;align=left;points=[];verticalAlign=middle;labelBackgroundColor=#ffffff;strokeColor=#999999;fillColor=#999999;" parent="1" vertex="1">
          <mxGeometry x="1640" y="753.5" width="40" height="295.4" as="geometry" />
        </mxCell>
        <mxCell id="3HzGkQfU9xg5AhfW2AGq-90" value="" style="verticalLabelPosition=bottom;html=1;verticalAlign=top;align=center;shape=mxgraph.floorplan.window;strokeColor=#999999;fillColor=#FFFFFF;direction=south;" parent="1" vertex="1">
          <mxGeometry x="1677" y="754.4" width="10" height="294.5" as="geometry" />
        </mxCell>
        <mxCell id="3HzGkQfU9xg5AhfW2AGq-91" value="8335" style="shape=dimension;whiteSpace=wrap;html=1;align=center;points=[];verticalAlign=bottom;spacingBottom=-5;labelBackgroundColor=#ffffff;strokeColor=#999999;fillColor=#999999;" parent="1" vertex="1">
          <mxGeometry x="842" y="754.4" width="833" height="40" as="geometry" />
        </mxCell>
        <mxCell id="3HzGkQfU9xg5AhfW2AGq-92" value="2940" style="shape=dimension;whiteSpace=wrap;html=1;align=center;points=[];verticalAlign=bottom;spacingBottom=-5;labelBackgroundColor=#ffffff;strokeColor=#999999;fillColor=#999999;" parent="1" vertex="1">
          <mxGeometry x="1376" y="750" width="294" height="20" as="geometry" />
        </mxCell>
        <mxCell id="3HzGkQfU9xg5AhfW2AGq-93" value="657" style="shape=dimension;whiteSpace=wrap;html=1;align=center;points=[];verticalAlign=bottom;spacingBottom=-5;labelBackgroundColor=#ffffff;strokeColor=#999999;fillColor=#999999;" parent="1" vertex="1">
          <mxGeometry x="842" y="753" width="66" height="17" as="geometry" />
        </mxCell>
        <mxCell id="3HzGkQfU9xg5AhfW2AGq-94" value="1457" style="shape=dimension;whiteSpace=wrap;html=1;align=center;points=[];verticalAlign=bottom;spacingBottom=-5;labelBackgroundColor=#ffffff;strokeColor=#999999;fillColor=#999999;" parent="1" vertex="1">
          <mxGeometry x="908" y="753" width="145.7" height="17" as="geometry" />
        </mxCell>
        <mxCell id="3HzGkQfU9xg5AhfW2AGq-95" value="3230" style="shape=dimension;whiteSpace=wrap;html=1;align=center;points=[];verticalAlign=bottom;spacingBottom=-5;labelBackgroundColor=#ffffff;strokeColor=#999999;fillColor=#999999;" parent="1" vertex="1">
          <mxGeometry x="1053.7" y="753.4" width="323" height="17" as="geometry" />
        </mxCell>
        <mxCell id="3HzGkQfU9xg5AhfW2AGq-96" value="" style="verticalLabelPosition=bottom;html=1;verticalAlign=top;align=center;shape=mxgraph.floorplan.doorLeft;strokeColor=#b85450;fillColor=#f8cecc;flipH=0;flipV=1;direction=north;" parent="1" vertex="1">
          <mxGeometry x="1266.5" y="1337.6" width="85" height="89" as="geometry" />
        </mxCell>
        <mxCell id="3HzGkQfU9xg5AhfW2AGq-98" value="768" style="shape=dimension;direction=west;whiteSpace=wrap;html=1;align=center;points=[];verticalAlign=top;spacingTop=-8;labelBackgroundColor=#ffffff;strokeColor=#999999;fillColor=#999999;" parent="1" vertex="1">
          <mxGeometry x="743" y="1276.4" width="77" height="40" as="geometry" />
        </mxCell>
        <mxCell id="3HzGkQfU9xg5AhfW2AGq-99" value="" style="verticalLabelPosition=bottom;html=1;verticalAlign=top;align=center;shape=mxgraph.floorplan.wall;fillColor=strokeColor;strokeColor=#999999;" parent="1" vertex="1">
          <mxGeometry x="743" y="1313.88" width="77" height="10" as="geometry" />
        </mxCell>
        <mxCell id="3HzGkQfU9xg5AhfW2AGq-100" value="" style="verticalLabelPosition=bottom;html=1;verticalAlign=top;align=center;shape=mxgraph.floorplan.doorRight;strokeColor=#b85450;fillColor=#f8cecc;flipH=1;flipV=1;" parent="1" vertex="1">
          <mxGeometry x="647.5" y="1228.38" width="95.5" height="95.5" as="geometry" />
        </mxCell>
        <mxCell id="3HzGkQfU9xg5AhfW2AGq-101" value="" style="verticalLabelPosition=bottom;html=1;verticalAlign=top;align=center;shape=mxgraph.floorplan.wall;fillColor=#ea6b66;strokeColor=#ea6b66;" parent="1" vertex="1">
          <mxGeometry x="457" y="1314" width="73" height="10" as="geometry" />
        </mxCell>
        <mxCell id="3HzGkQfU9xg5AhfW2AGq-102" value="" style="verticalLabelPosition=bottom;html=1;verticalAlign=top;align=center;shape=mxgraph.floorplan.doorRight;strokeColor=#b85450;fillColor=#f8cecc;flipH=1;flipV=1;" parent="1" vertex="1">
          <mxGeometry x="361" y="1228.25" width="95.5" height="95.5" as="geometry" />
        </mxCell>
        <mxCell id="3HzGkQfU9xg5AhfW2AGq-103" value="1897" style="shape=dimension;whiteSpace=wrap;html=1;align=center;points=[];verticalAlign=bottom;spacingBottom=-5;labelBackgroundColor=#ffffff;strokeColor=#999999;fillColor=#999999;" parent="1" vertex="1">
          <mxGeometry x="457.5" y="1320" width="190" height="31.5" as="geometry" />
        </mxCell>
        <mxCell id="3HzGkQfU9xg5AhfW2AGq-104" value="&lt;br&gt;6800" style="shape=dimension;direction=south;whiteSpace=wrap;html=1;align=left;points=[];verticalAlign=middle;labelBackgroundColor=#ffffff;strokeColor=#999999;fillColor=#999999;" parent="1" vertex="1">
          <mxGeometry x="90" y="919.53" width="40" height="680" as="geometry" />
        </mxCell>
        <mxCell id="3HzGkQfU9xg5AhfW2AGq-107" value="" style="rounded=0;whiteSpace=wrap;html=1;strokeColor=none;fillColor=#EA6B66;direction=west;" parent="1" vertex="1">
          <mxGeometry x="1149.2" y="1100" width="10" height="150" as="geometry" />
        </mxCell>
        <mxCell id="3HzGkQfU9xg5AhfW2AGq-111" value="" style="rounded=0;whiteSpace=wrap;html=1;strokeColor=#EA6B66;fillColor=#EA6B66;direction=south;" parent="1" vertex="1">
          <mxGeometry x="1170" y="1431.82" width="20" height="15" as="geometry" />
        </mxCell>
        <mxCell id="3HzGkQfU9xg5AhfW2AGq-112" value="" style="rounded=0;whiteSpace=wrap;html=1;strokeColor=#EA6B66;fillColor=none;direction=west;" parent="1" vertex="1">
          <mxGeometry x="1119.2" y="1101" width="30" height="210" as="geometry" />
        </mxCell>
        <mxCell id="3HzGkQfU9xg5AhfW2AGq-113" value="" style="rounded=0;whiteSpace=wrap;html=1;strokeColor=#EA6B66;fillColor=none;direction=west;" parent="1" vertex="1">
          <mxGeometry x="900" y="1280" width="220.8" height="31" as="geometry" />
        </mxCell>
        <mxCell id="lSUZJxF9v3dEFM23ph3C-1" value="" style="verticalLabelPosition=bottom;html=1;verticalAlign=top;align=center;shape=mxgraph.floorplan.doorLeft;strokeColor=#b85450;fillColor=#f8cecc;flipH=0;flipV=1;direction=north;rotation=90;" vertex="1" parent="1">
          <mxGeometry x="1190" y="1436.4" width="85" height="75.4" as="geometry" />
        </mxCell>
        <mxCell id="lSUZJxF9v3dEFM23ph3C-2" value="" style="verticalLabelPosition=bottom;html=1;verticalAlign=top;align=center;shape=mxgraph.floorplan.wall;fillColor=strokeColor;strokeColor=#999999;" vertex="1" parent="1">
          <mxGeometry x="520" y="1314" width="130" height="10" as="geometry" />
        </mxCell>
        <mxCell id="lSUZJxF9v3dEFM23ph3C-3" value="" style="verticalLabelPosition=bottom;html=1;verticalAlign=top;align=center;shape=mxgraph.floorplan.doorRight;strokeColor=#b85450;fillColor=#f8cecc;flipH=1;flipV=1;" vertex="1" parent="1">
          <mxGeometry x="342.8" y="1335.3" width="85" height="95.5" as="geometry" />
        </mxCell>
        <mxCell id="lSUZJxF9v3dEFM23ph3C-6" value="" style="verticalLabelPosition=bottom;html=1;verticalAlign=top;align=center;shape=mxgraph.floorplan.wall;fillColor=strokeColor;strokeColor=#999999;" vertex="1" parent="1">
          <mxGeometry x="430" y="1424.4" width="120" height="10" as="geometry" />
        </mxCell>
        <mxCell id="lSUZJxF9v3dEFM23ph3C-8" value="" style="rounded=0;whiteSpace=wrap;html=1;strokeColor=#EA6B66;fillColor=#EA6B66;direction=south;" vertex="1" parent="1">
          <mxGeometry x="430" y="1425" width="20" height="10" as="geometry" />
        </mxCell>
        <mxCell id="lSUZJxF9v3dEFM23ph3C-10" value="" style="verticalLabelPosition=bottom;html=1;verticalAlign=top;align=center;shape=mxgraph.floorplan.wall;fillColor=#ea6b66;strokeColor=#ea6b66;" vertex="1" parent="1">
          <mxGeometry x="363.7" y="1557.81" width="176.3" height="10" as="geometry" />
        </mxCell>
      </root>
    </mxGraphModel>
  </diagram>
</mxfile>
